name ./resultDataOpenSim/trcMotMarkerGrf/sub06/grf-12-06.mot
datacolumns 19
datarows 30
range 1.61200000 1.72800000
endheader

                time	     ground_force_vx	     ground_force_vy	     ground_force_vz	     ground_force_px	     ground_force_py	     ground_force_pz	   l_ground_force_vx	   l_ground_force_vy	   l_ground_force_vz	   l_ground_force_px	   l_ground_force_py	   l_ground_force_pz	     ground_torque_x	     ground_torque_y	     ground_torque_z	   l_ground_torque_x	   l_ground_torque_y	   l_ground_torque_z	
          1.61200000	        127.77669674	        670.60384253	         -7.52764654	          0.91009415	          0.00000000	          0.02807318	          0.00000000	          0.00000000	          0.00000000	          0.00000000	          0.00000000	          0.00000000	          0.00000000	          2.83586404	          0.00000000	          0.00000000	          0.00000000	          0.00000000	
          1.61600000	        132.28806446	        673.63651006	         -6.62249243	          0.91062175	          0.00000000	          0.02761878	          0.00000000	          0.00000000	          0.00000000	          0.00000000	          0.00000000	          0.00000000	          0.00000000	          2.80735394	          0.00000000	          0.00000000	          0.00000000	          0.00000000	
          1.62000000	        136.61794514	        675.62705393	         -5.62375136	          0.91114799	          0.00000000	          0.02714539	          0.00000000	          0.00000000	          0.00000000	          0.00000000	          0.00000000	          0.00000000	          0.00000000	          2.77211075	          0.00000000	          0.00000000	          0.00000000	          0.00000000	
          1.62400000	        140.85831046	        676.45969339	         -4.61381421	          0.91164619	          0.00000000	          0.02666097	          0.00000000	          0.00000000	          0.00000000	          0.00000000	          0.00000000	          0.00000000	          0.00000000	          2.72995921	          0.00000000	          0.00000000	          0.00000000	          0.00000000	
          1.62800000	        145.07107050	        675.99195239	         -3.65074426	          0.91209941	          0.00000000	          0.02617468	          0.00000000	          0.00000000	          0.00000000	          0.00000000	          0.00000000	          0.00000000	          0.00000000	          2.68424750	          0.00000000	          0.00000000	          0.00000000	          0.00000000	
          1.63200000	        149.28144001	        674.07207415	         -2.76111433	          0.91250001	          0.00000000	          0.02569398	          0.00000000	          0.00000000	          0.00000000	          0.00000000	          0.00000000	          0.00000000	          0.00000000	          2.64201564	          0.00000000	          0.00000000	          0.00000000	          0.00000000	
          1.63600000	        153.49505470	        670.56045003	         -1.93389657	          0.91284140	          0.00000000	          0.02522381	          0.00000000	          0.00000000	          0.00000000	          0.00000000	          0.00000000	          0.00000000	          0.00000000	          2.61260045	          0.00000000	          0.00000000	          0.00000000	          0.00000000	
          1.64000000	        157.75004782	        665.35083445	         -1.11574358	          0.91313052	          0.00000000	          0.02476866	          0.00000000	          0.00000000	          0.00000000	          0.00000000	          0.00000000	          0.00000000	          0.00000000	          2.60458296	          0.00000000	          0.00000000	          0.00000000	          0.00000000	
          1.64400000	        162.17840883	        658.36969700	         -0.20850435	          0.91337447	          0.00000000	          0.02432944	          0.00000000	          0.00000000	          0.00000000	          0.00000000	          0.00000000	          0.00000000	          0.00000000	          2.62171593	          0.00000000	          0.00000000	          0.00000000	          0.00000000	
          1.64800000	        166.98629640	        649.52725665	          0.90515992	          0.91353149	          0.00000000	          0.02389994	          0.00000000	          0.00000000	          0.00000000	          0.00000000	          0.00000000	          0.00000000	          0.00000000	          2.65950839	          0.00000000	          0.00000000	          0.00000000	          0.00000000	
          1.65200000	        172.32024718	        638.65066815	          2.29447204	          0.91351919	          0.00000000	          0.02347768	          0.00000000	          0.00000000	          0.00000000	          0.00000000	          0.00000000	          0.00000000	          0.00000000	          2.70479762	          0.00000000	          0.00000000	          0.00000000	          0.00000000	
          1.65600000	        178.12540165	        625.47343943	          3.93871422	          0.91330551	          0.00000000	          0.02307061	          0.00000000	          0.00000000	          0.00000000	          0.00000000	          0.00000000	          0.00000000	          0.00000000	          2.73956975	          0.00000000	          0.00000000	          0.00000000	          0.00000000	
          1.66000000	        184.11192436	        609.69478568	          5.76493979	          0.91293112	          0.00000000	          0.02268183	          0.00000000	          0.00000000	          0.00000000	          0.00000000	          0.00000000	          0.00000000	          0.00000000	          2.74759168	          0.00000000	          0.00000000	          0.00000000	          0.00000000	
          1.66400000	        189.81595205	        591.02460280	          7.69669544	          0.91243960	          0.00000000	          0.02230337	          0.00000000	          0.00000000	          0.00000000	          0.00000000	          0.00000000	          0.00000000	          0.00000000	          2.72044111	          0.00000000	          0.00000000	          0.00000000	          0.00000000	
          1.66800000	        194.66068921	        569.15524163	          9.65752096	          0.91184857	          0.00000000	          0.02193201	          0.00000000	          0.00000000	          0.00000000	          0.00000000	          0.00000000	          0.00000000	          0.00000000	          2.65994515	          0.00000000	          0.00000000	          0.00000000	          0.00000000	
          1.67200000	        197.98673178	        543.72393831	         11.57192189	          0.91118334	          0.00000000	          0.02157166	          0.00000000	          0.00000000	          0.00000000	          0.00000000	          0.00000000	          0.00000000	          0.00000000	          2.57605899	          0.00000000	          0.00000000	          0.00000000	          0.00000000	
          1.67600000	        199.09780864	        514.36870893	         13.36978726	          0.91051608	          0.00000000	          0.02122314	          0.00000000	          0.00000000	          0.00000000	          0.00000000	          0.00000000	          0.00000000	          0.00000000	          2.48140203	          0.00000000	          0.00000000	          0.00000000	          0.00000000	
          1.68000000	        197.33932146	        480.88129149	         14.96497868	          0.90995895	          0.00000000	          0.02088555	          0.00000000	          0.00000000	          0.00000000	          0.00000000	          0.00000000	          0.00000000	          0.00000000	          2.38519310	          0.00000000	          0.00000000	          0.00000000	          0.00000000	
          1.68400000	        192.18117845	        443.36688112	         16.24999292	          0.90964627	          0.00000000	          0.02056411	          0.00000000	          0.00000000	          0.00000000	          0.00000000	          0.00000000	          0.00000000	          0.00000000	          2.28952119	          0.00000000	          0.00000000	          0.00000000	          0.00000000	
          1.68800000	        183.27563296	        402.34518876	         17.13481305	          0.90971272	          0.00000000	          0.02025355	          0.00000000	          0.00000000	          0.00000000	          0.00000000	          0.00000000	          0.00000000	          0.00000000	          2.18957052	          0.00000000	          0.00000000	          0.00000000	          0.00000000	
          1.69200000	        170.49318869	        358.79845515	         17.57660727	          0.91029485	          0.00000000	          0.01993427	          0.00000000	          0.00000000	          0.00000000	          0.00000000	          0.00000000	          0.00000000	          0.00000000	          2.07733439	          0.00000000	          0.00000000	          0.00000000	          0.00000000	
          1.69600000	        153.97635853	        314.18782223	         17.57789970	          0.91158463	          0.00000000	          0.01958654	          0.00000000	          0.00000000	          0.00000000	          0.00000000	          0.00000000	          0.00000000	          0.00000000	          1.94654911	          0.00000000	          0.00000000	          0.00000000	          0.00000000	
          1.70000000	        134.22733819	        270.35974655	         17.19251358	          0.91386732	          0.00000000	          0.01917306	          0.00000000	          0.00000000	          0.00000000	          0.00000000	          0.00000000	          0.00000000	          0.00000000	          1.79586295	          0.00000000	          0.00000000	          0.00000000	          0.00000000	
          1.70400000	        112.19590584	        229.19277077	         16.53112784	          0.91747091	          0.00000000	          0.01860651	          0.00000000	          0.00000000	          0.00000000	          0.00000000	          0.00000000	          0.00000000	          0.00000000	          1.62828749	          0.00000000	          0.00000000	          0.00000000	          0.00000000	
          1.70800000	         89.28685335	        192.06122970	         15.72165986	          0.92247086	          0.00000000	          0.01781694	          0.00000000	          0.00000000	          0.00000000	          0.00000000	          0.00000000	          0.00000000	          0.00000000	          1.44769140	          0.00000000	          0.00000000	          0.00000000	          0.00000000	
          1.71200000	         67.16182178	        159.49435713	         14.84351075	          0.92860362	          0.00000000	          0.01676903	          0.00000000	          0.00000000	          0.00000000	          0.00000000	          0.00000000	          0.00000000	          0.00000000	          1.25570065	          0.00000000	          0.00000000	          0.00000000	          0.00000000	
          1.71600000	         47.33138622	        131.29265542	         13.88058346	          0.93523712	          0.00000000	          0.01550093	          0.00000000	          0.00000000	          0.00000000	          0.00000000	          0.00000000	          0.00000000	          0.00000000	          1.05243392	          0.00000000	          0.00000000	          0.00000000	          0.00000000	
          1.72000000	         30.77988248	        106.92677076	         12.71915751	          0.94175914	          0.00000000	          0.01413474	          0.00000000	          0.00000000	          0.00000000	          0.00000000	          0.00000000	          0.00000000	          0.00000000	          0.84148470	          0.00000000	          0.00000000	          0.00000000	          0.00000000	
          1.72400000	         17.86018536	         85.85648757	         11.21502091	          0.94779219	          0.00000000	          0.01283475	          0.00000000	          0.00000000	          0.00000000	          0.00000000	          0.00000000	          0.00000000	          0.00000000	          0.63554226	          0.00000000	          0.00000000	          0.00000000	          0.00000000	
          1.72800000	          8.43429159	         67.61823728	          9.30033614	          0.95317575	          0.00000000	          0.01179668	          0.00000000	          0.00000000	          0.00000000	          0.00000000	          0.00000000	          0.00000000	          0.00000000	          0.45727855	          0.00000000	          0.00000000	          0.00000000	          0.00000000	
